<mxfile host="www.draw.io" modified="2019-12-06T20:43:54.013Z" agent="Mozilla/5.0 (Macintosh; Intel Mac OS X 10.15; rv:72.0) Gecko/20100101 Firefox/72.0" etag="FkWpHHdyqQOw8evD5Cj4" version="12.3.8" type="github" pages="1">
  <diagram id="xcRPYhNSRlSSEehr1pP_" name="Mobilier Pour Tous">
    <mxGraphModel dx="1186" dy="779" grid="1" gridSize="10" guides="1" tooltips="1" connect="1" arrows="1" fold="1" page="1" pageScale="1" pageWidth="2336" pageHeight="1654" math="0" shadow="0">
      <root>
        <mxCell id="0"/>
        <mxCell id="1" parent="0"/>
        <object label="Personne" id="EW4ksH6o6DgnUDPNHG07-9">
          <mxCell style="swimlane;fontStyle=1;align=center;verticalAlign=top;childLayout=stackLayout;horizontal=1;startSize=26;horizontalStack=0;resizeParent=1;resizeParentMax=0;resizeLast=0;collapsible=1;marginBottom=0;fillColor=#dae8fc;strokeColor=#000000;" parent="1" vertex="1">
            <mxGeometry x="600" y="40" width="200" height="164" as="geometry"/>
          </mxCell>
        </object>
        <mxCell id="DV1rY5mDAgPAJ8lZDfXT-3" value="+ id: int" style="text;strokeColor=none;fillColor=none;align=left;verticalAlign=top;spacingLeft=4;spacingRight=4;overflow=hidden;rotatable=0;points=[[0,0.5],[1,0.5]];portConstraint=eastwest;fontColor=#333333;" vertex="1" parent="EW4ksH6o6DgnUDPNHG07-9">
          <mxGeometry y="26" width="200" height="26" as="geometry"/>
        </mxCell>
        <mxCell id="DV1rY5mDAgPAJ8lZDfXT-6" value="+ nom: String" style="text;strokeColor=none;fillColor=none;align=left;verticalAlign=top;spacingLeft=4;spacingRight=4;overflow=hidden;rotatable=0;points=[[0,0.5],[1,0.5]];portConstraint=eastwest;fontColor=#333333;" vertex="1" parent="EW4ksH6o6DgnUDPNHG07-9">
          <mxGeometry y="52" width="200" height="26" as="geometry"/>
        </mxCell>
        <mxCell id="DV1rY5mDAgPAJ8lZDfXT-11" value="+ tel: String" style="text;strokeColor=none;fillColor=none;align=left;verticalAlign=top;spacingLeft=4;spacingRight=4;overflow=hidden;rotatable=0;points=[[0,0.5],[1,0.5]];portConstraint=eastwest;fontColor=#333333;" vertex="1" parent="EW4ksH6o6DgnUDPNHG07-9">
          <mxGeometry y="78" width="200" height="26" as="geometry"/>
        </mxCell>
        <mxCell id="DV1rY5mDAgPAJ8lZDfXT-12" value="+ adresse: String" style="text;strokeColor=none;fillColor=none;align=left;verticalAlign=top;spacingLeft=4;spacingRight=4;overflow=hidden;rotatable=0;points=[[0,0.5],[1,0.5]];portConstraint=eastwest;fontColor=#333333;" vertex="1" parent="EW4ksH6o6DgnUDPNHG07-9">
          <mxGeometry y="104" width="200" height="26" as="geometry"/>
        </mxCell>
        <mxCell id="DV1rY5mDAgPAJ8lZDfXT-9" value="" style="line;strokeWidth=1;fillColor=none;align=left;verticalAlign=middle;spacingTop=-1;spacingLeft=3;spacingRight=3;rotatable=0;labelPosition=right;points=[];portConstraint=eastwest;" vertex="1" parent="EW4ksH6o6DgnUDPNHG07-9">
          <mxGeometry y="130" width="200" height="8" as="geometry"/>
        </mxCell>
        <mxCell id="DV1rY5mDAgPAJ8lZDfXT-10" value="+ method(type): type" style="text;strokeColor=none;fillColor=none;align=left;verticalAlign=top;spacingLeft=4;spacingRight=4;overflow=hidden;rotatable=0;points=[[0,0.5],[1,0.5]];portConstraint=eastwest;" vertex="1" parent="EW4ksH6o6DgnUDPNHG07-9">
          <mxGeometry y="138" width="200" height="26" as="geometry"/>
        </mxCell>
        <mxCell id="EW4ksH6o6DgnUDPNHG07-15" value="Morale" style="swimlane;fontStyle=1;align=center;verticalAlign=top;childLayout=stackLayout;horizontal=1;startSize=26;horizontalStack=0;resizeParent=1;resizeParentMax=0;resizeLast=0;collapsible=1;marginBottom=0;fillColor=#f8cecc;strokeColor=#b85450;" parent="1" vertex="1">
          <mxGeometry x="240" y="240" width="160" height="86" as="geometry"/>
        </mxCell>
        <mxCell id="EW4ksH6o6DgnUDPNHG07-16" value="+ stocks: Collection&lt;Don&gt;" style="text;strokeColor=none;fillColor=none;align=left;verticalAlign=top;spacingLeft=4;spacingRight=4;overflow=hidden;rotatable=0;points=[[0,0.5],[1,0.5]];portConstraint=eastwest;" parent="EW4ksH6o6DgnUDPNHG07-15" vertex="1">
          <mxGeometry y="26" width="160" height="26" as="geometry"/>
        </mxCell>
        <mxCell id="EW4ksH6o6DgnUDPNHG07-17" value="" style="line;strokeWidth=1;fillColor=none;align=left;verticalAlign=middle;spacingTop=-1;spacingLeft=3;spacingRight=3;rotatable=0;labelPosition=right;points=[];portConstraint=eastwest;" parent="EW4ksH6o6DgnUDPNHG07-15" vertex="1">
          <mxGeometry y="52" width="160" height="8" as="geometry"/>
        </mxCell>
        <mxCell id="EW4ksH6o6DgnUDPNHG07-18" value="+ method(type): type" style="text;strokeColor=none;fillColor=none;align=left;verticalAlign=top;spacingLeft=4;spacingRight=4;overflow=hidden;rotatable=0;points=[[0,0.5],[1,0.5]];portConstraint=eastwest;" parent="EW4ksH6o6DgnUDPNHG07-15" vertex="1">
          <mxGeometry y="60" width="160" height="26" as="geometry"/>
        </mxCell>
        <mxCell id="EW4ksH6o6DgnUDPNHG07-20" value="Physique" style="swimlane;fontStyle=1;align=center;verticalAlign=top;childLayout=stackLayout;horizontal=1;startSize=26;horizontalStack=0;resizeParent=1;resizeParentMax=0;resizeLast=0;collapsible=1;marginBottom=0;fillColor=#f8cecc;strokeColor=#b85450;" parent="1" vertex="1">
          <mxGeometry x="1007" y="260" width="160" height="86" as="geometry"/>
        </mxCell>
        <mxCell id="EW4ksH6o6DgnUDPNHG07-21" value="+ prenom: String" style="text;strokeColor=none;fillColor=none;align=left;verticalAlign=top;spacingLeft=4;spacingRight=4;overflow=hidden;rotatable=0;points=[[0,0.5],[1,0.5]];portConstraint=eastwest;" parent="EW4ksH6o6DgnUDPNHG07-20" vertex="1">
          <mxGeometry y="26" width="160" height="26" as="geometry"/>
        </mxCell>
        <mxCell id="EW4ksH6o6DgnUDPNHG07-22" value="" style="line;strokeWidth=1;fillColor=none;align=left;verticalAlign=middle;spacingTop=-1;spacingLeft=3;spacingRight=3;rotatable=0;labelPosition=right;points=[];portConstraint=eastwest;" parent="EW4ksH6o6DgnUDPNHG07-20" vertex="1">
          <mxGeometry y="52" width="160" height="8" as="geometry"/>
        </mxCell>
        <mxCell id="EW4ksH6o6DgnUDPNHG07-23" value="+ method(type): type" style="text;strokeColor=none;fillColor=none;align=left;verticalAlign=top;spacingLeft=4;spacingRight=4;overflow=hidden;rotatable=0;points=[[0,0.5],[1,0.5]];portConstraint=eastwest;" parent="EW4ksH6o6DgnUDPNHG07-20" vertex="1">
          <mxGeometry y="60" width="160" height="26" as="geometry"/>
        </mxCell>
        <mxCell id="EW4ksH6o6DgnUDPNHG07-25" value="Association" style="swimlane;fontStyle=1;align=center;verticalAlign=top;childLayout=stackLayout;horizontal=1;startSize=26;horizontalStack=0;resizeParent=1;resizeParentMax=0;resizeLast=0;collapsible=1;marginBottom=0;fillColor=#d5e8d4;strokeColor=#82b366;" parent="1" vertex="1">
          <mxGeometry x="40" y="400" width="160" height="86" as="geometry"/>
        </mxCell>
        <mxCell id="EW4ksH6o6DgnUDPNHG07-26" value="+ field: type" style="text;strokeColor=none;fillColor=none;align=left;verticalAlign=top;spacingLeft=4;spacingRight=4;overflow=hidden;rotatable=0;points=[[0,0.5],[1,0.5]];portConstraint=eastwest;" parent="EW4ksH6o6DgnUDPNHG07-25" vertex="1">
          <mxGeometry y="26" width="160" height="26" as="geometry"/>
        </mxCell>
        <mxCell id="EW4ksH6o6DgnUDPNHG07-27" value="" style="line;strokeWidth=1;fillColor=none;align=left;verticalAlign=middle;spacingTop=-1;spacingLeft=3;spacingRight=3;rotatable=0;labelPosition=right;points=[];portConstraint=eastwest;" parent="EW4ksH6o6DgnUDPNHG07-25" vertex="1">
          <mxGeometry y="52" width="160" height="8" as="geometry"/>
        </mxCell>
        <mxCell id="EW4ksH6o6DgnUDPNHG07-28" value="+ method(type): type" style="text;strokeColor=none;fillColor=none;align=left;verticalAlign=top;spacingLeft=4;spacingRight=4;overflow=hidden;rotatable=0;points=[[0,0.5],[1,0.5]];portConstraint=eastwest;" parent="EW4ksH6o6DgnUDPNHG07-25" vertex="1">
          <mxGeometry y="60" width="160" height="26" as="geometry"/>
        </mxCell>
        <mxCell id="EW4ksH6o6DgnUDPNHG07-29" value="DepotVente" style="swimlane;fontStyle=1;align=center;verticalAlign=top;childLayout=stackLayout;horizontal=1;startSize=26;horizontalStack=0;resizeParent=1;resizeParentMax=0;resizeLast=0;collapsible=1;marginBottom=0;fillColor=#d5e8d4;strokeColor=#82b366;" parent="1" vertex="1">
          <mxGeometry x="240" y="400" width="160" height="86" as="geometry"/>
        </mxCell>
        <mxCell id="EW4ksH6o6DgnUDPNHG07-30" value="+ field: type" style="text;strokeColor=none;fillColor=none;align=left;verticalAlign=top;spacingLeft=4;spacingRight=4;overflow=hidden;rotatable=0;points=[[0,0.5],[1,0.5]];portConstraint=eastwest;" parent="EW4ksH6o6DgnUDPNHG07-29" vertex="1">
          <mxGeometry y="26" width="160" height="26" as="geometry"/>
        </mxCell>
        <mxCell id="EW4ksH6o6DgnUDPNHG07-31" value="" style="line;strokeWidth=1;fillColor=none;align=left;verticalAlign=middle;spacingTop=-1;spacingLeft=3;spacingRight=3;rotatable=0;labelPosition=right;points=[];portConstraint=eastwest;" parent="EW4ksH6o6DgnUDPNHG07-29" vertex="1">
          <mxGeometry y="52" width="160" height="8" as="geometry"/>
        </mxCell>
        <mxCell id="EW4ksH6o6DgnUDPNHG07-32" value="+ method(type): type" style="text;strokeColor=none;fillColor=none;align=left;verticalAlign=top;spacingLeft=4;spacingRight=4;overflow=hidden;rotatable=0;points=[[0,0.5],[1,0.5]];portConstraint=eastwest;" parent="EW4ksH6o6DgnUDPNHG07-29" vertex="1">
          <mxGeometry y="60" width="160" height="26" as="geometry"/>
        </mxCell>
        <mxCell id="EW4ksH6o6DgnUDPNHG07-33" value="Entrepot" style="swimlane;fontStyle=1;align=center;verticalAlign=top;childLayout=stackLayout;horizontal=1;startSize=26;horizontalStack=0;resizeParent=1;resizeParentMax=0;resizeLast=0;collapsible=1;marginBottom=0;fillColor=#d5e8d4;strokeColor=#82b366;" parent="1" vertex="1">
          <mxGeometry x="440" y="400" width="160" height="112" as="geometry"/>
        </mxCell>
        <mxCell id="EW4ksH6o6DgnUDPNHG07-34" value="+ field: type" style="text;strokeColor=none;fillColor=none;align=left;verticalAlign=top;spacingLeft=4;spacingRight=4;overflow=hidden;rotatable=0;points=[[0,0.5],[1,0.5]];portConstraint=eastwest;" parent="EW4ksH6o6DgnUDPNHG07-33" vertex="1">
          <mxGeometry y="26" width="160" height="26" as="geometry"/>
        </mxCell>
        <mxCell id="DV1rY5mDAgPAJ8lZDfXT-2" value="+ field: type" style="text;strokeColor=none;fillColor=none;align=left;verticalAlign=top;spacingLeft=4;spacingRight=4;overflow=hidden;rotatable=0;points=[[0,0.5],[1,0.5]];portConstraint=eastwest;" vertex="1" parent="EW4ksH6o6DgnUDPNHG07-33">
          <mxGeometry y="52" width="160" height="26" as="geometry"/>
        </mxCell>
        <mxCell id="EW4ksH6o6DgnUDPNHG07-35" value="" style="line;strokeWidth=1;fillColor=none;align=left;verticalAlign=middle;spacingTop=-1;spacingLeft=3;spacingRight=3;rotatable=0;labelPosition=right;points=[];portConstraint=eastwest;" parent="EW4ksH6o6DgnUDPNHG07-33" vertex="1">
          <mxGeometry y="78" width="160" height="8" as="geometry"/>
        </mxCell>
        <mxCell id="EW4ksH6o6DgnUDPNHG07-36" value="+ method(type): type" style="text;strokeColor=none;fillColor=none;align=left;verticalAlign=top;spacingLeft=4;spacingRight=4;overflow=hidden;rotatable=0;points=[[0,0.5],[1,0.5]];portConstraint=eastwest;" parent="EW4ksH6o6DgnUDPNHG07-33" vertex="1">
          <mxGeometry y="86" width="160" height="26" as="geometry"/>
        </mxCell>
        <mxCell id="QMnXHC6J5KnR4AdairPu-1" value="Extends" style="endArrow=block;endSize=16;endFill=0;html=1;" parent="1" source="EW4ksH6o6DgnUDPNHG07-15" target="EW4ksH6o6DgnUDPNHG07-9" edge="1">
          <mxGeometry width="160" relative="1" as="geometry">
            <mxPoint x="40" y="510" as="sourcePoint"/>
            <mxPoint x="200" y="510" as="targetPoint"/>
          </mxGeometry>
        </mxCell>
        <mxCell id="QMnXHC6J5KnR4AdairPu-2" value="Extends" style="endArrow=block;endSize=16;endFill=0;html=1;" parent="1" source="EW4ksH6o6DgnUDPNHG07-20" target="EW4ksH6o6DgnUDPNHG07-9" edge="1">
          <mxGeometry width="160" relative="1" as="geometry">
            <mxPoint x="40" y="510" as="sourcePoint"/>
            <mxPoint x="200" y="510" as="targetPoint"/>
          </mxGeometry>
        </mxCell>
        <mxCell id="QMnXHC6J5KnR4AdairPu-3" value="Extends" style="endArrow=block;endSize=16;endFill=0;html=1;" parent="1" source="EW4ksH6o6DgnUDPNHG07-25" target="EW4ksH6o6DgnUDPNHG07-15" edge="1">
          <mxGeometry width="160" relative="1" as="geometry">
            <mxPoint x="40" y="510" as="sourcePoint"/>
            <mxPoint x="200" y="510" as="targetPoint"/>
          </mxGeometry>
        </mxCell>
        <mxCell id="QMnXHC6J5KnR4AdairPu-4" value="Extends" style="endArrow=block;endSize=16;endFill=0;html=1;" parent="1" source="EW4ksH6o6DgnUDPNHG07-29" target="EW4ksH6o6DgnUDPNHG07-15" edge="1">
          <mxGeometry width="160" relative="1" as="geometry">
            <mxPoint x="40" y="510" as="sourcePoint"/>
            <mxPoint x="200" y="510" as="targetPoint"/>
          </mxGeometry>
        </mxCell>
        <mxCell id="QMnXHC6J5KnR4AdairPu-5" value="Extends" style="endArrow=block;endSize=16;endFill=0;html=1;" parent="1" source="EW4ksH6o6DgnUDPNHG07-33" target="EW4ksH6o6DgnUDPNHG07-15" edge="1">
          <mxGeometry width="160" relative="1" as="geometry">
            <mxPoint x="40" y="510" as="sourcePoint"/>
            <mxPoint x="200" y="510" as="targetPoint"/>
          </mxGeometry>
        </mxCell>
        <mxCell id="QMnXHC6J5KnR4AdairPu-6" value="President&#xa;" style="swimlane;fontStyle=1;align=center;verticalAlign=top;childLayout=stackLayout;horizontal=1;startSize=26;horizontalStack=0;resizeParent=1;resizeParentMax=0;resizeLast=0;collapsible=1;marginBottom=0;fillColor=#ffe6cc;strokeColor=#d79b00;" parent="1" vertex="1">
          <mxGeometry x="840" y="400" width="160" height="86" as="geometry"/>
        </mxCell>
        <mxCell id="QMnXHC6J5KnR4AdairPu-7" value="+ field: type" style="text;strokeColor=none;fillColor=none;align=left;verticalAlign=top;spacingLeft=4;spacingRight=4;overflow=hidden;rotatable=0;points=[[0,0.5],[1,0.5]];portConstraint=eastwest;" parent="QMnXHC6J5KnR4AdairPu-6" vertex="1">
          <mxGeometry y="26" width="160" height="26" as="geometry"/>
        </mxCell>
        <mxCell id="QMnXHC6J5KnR4AdairPu-8" value="" style="line;strokeWidth=1;fillColor=none;align=left;verticalAlign=middle;spacingTop=-1;spacingLeft=3;spacingRight=3;rotatable=0;labelPosition=right;points=[];portConstraint=eastwest;" parent="QMnXHC6J5KnR4AdairPu-6" vertex="1">
          <mxGeometry y="52" width="160" height="8" as="geometry"/>
        </mxCell>
        <mxCell id="QMnXHC6J5KnR4AdairPu-9" value="+ method(type): type" style="text;strokeColor=none;fillColor=none;align=left;verticalAlign=top;spacingLeft=4;spacingRight=4;overflow=hidden;rotatable=0;points=[[0,0.5],[1,0.5]];portConstraint=eastwest;" parent="QMnXHC6J5KnR4AdairPu-6" vertex="1">
          <mxGeometry y="60" width="160" height="26" as="geometry"/>
        </mxCell>
        <mxCell id="QMnXHC6J5KnR4AdairPu-10" value="Tresorier" style="swimlane;fontStyle=1;align=center;verticalAlign=top;childLayout=stackLayout;horizontal=1;startSize=26;horizontalStack=0;resizeParent=1;resizeParentMax=0;resizeLast=0;collapsible=1;marginBottom=0;fillColor=#ffe6cc;strokeColor=#d79b00;" parent="1" vertex="1">
          <mxGeometry x="1040" y="400" width="160" height="86" as="geometry"/>
        </mxCell>
        <mxCell id="QMnXHC6J5KnR4AdairPu-11" value="+ field: type" style="text;strokeColor=none;fillColor=none;align=left;verticalAlign=top;spacingLeft=4;spacingRight=4;overflow=hidden;rotatable=0;points=[[0,0.5],[1,0.5]];portConstraint=eastwest;" parent="QMnXHC6J5KnR4AdairPu-10" vertex="1">
          <mxGeometry y="26" width="160" height="26" as="geometry"/>
        </mxCell>
        <mxCell id="QMnXHC6J5KnR4AdairPu-12" value="" style="line;strokeWidth=1;fillColor=none;align=left;verticalAlign=middle;spacingTop=-1;spacingLeft=3;spacingRight=3;rotatable=0;labelPosition=right;points=[];portConstraint=eastwest;" parent="QMnXHC6J5KnR4AdairPu-10" vertex="1">
          <mxGeometry y="52" width="160" height="8" as="geometry"/>
        </mxCell>
        <mxCell id="QMnXHC6J5KnR4AdairPu-13" value="+ method(type): type" style="text;strokeColor=none;fillColor=none;align=left;verticalAlign=top;spacingLeft=4;spacingRight=4;overflow=hidden;rotatable=0;points=[[0,0.5],[1,0.5]];portConstraint=eastwest;" parent="QMnXHC6J5KnR4AdairPu-10" vertex="1">
          <mxGeometry y="60" width="160" height="26" as="geometry"/>
        </mxCell>
        <mxCell id="QMnXHC6J5KnR4AdairPu-14" value="Membre" style="swimlane;fontStyle=1;align=center;verticalAlign=top;childLayout=stackLayout;horizontal=1;startSize=26;horizontalStack=0;resizeParent=1;resizeParentMax=0;resizeLast=0;collapsible=1;marginBottom=0;fillColor=#ffe6cc;strokeColor=#d79b00;" parent="1" vertex="1">
          <mxGeometry x="1240" y="400" width="160" height="86" as="geometry"/>
        </mxCell>
        <mxCell id="QMnXHC6J5KnR4AdairPu-15" value="+ field: type" style="text;strokeColor=none;fillColor=none;align=left;verticalAlign=top;spacingLeft=4;spacingRight=4;overflow=hidden;rotatable=0;points=[[0,0.5],[1,0.5]];portConstraint=eastwest;" parent="QMnXHC6J5KnR4AdairPu-14" vertex="1">
          <mxGeometry y="26" width="160" height="26" as="geometry"/>
        </mxCell>
        <mxCell id="QMnXHC6J5KnR4AdairPu-16" value="" style="line;strokeWidth=1;fillColor=none;align=left;verticalAlign=middle;spacingTop=-1;spacingLeft=3;spacingRight=3;rotatable=0;labelPosition=right;points=[];portConstraint=eastwest;" parent="QMnXHC6J5KnR4AdairPu-14" vertex="1">
          <mxGeometry y="52" width="160" height="8" as="geometry"/>
        </mxCell>
        <mxCell id="QMnXHC6J5KnR4AdairPu-17" value="+ method(type): type" style="text;strokeColor=none;fillColor=none;align=left;verticalAlign=top;spacingLeft=4;spacingRight=4;overflow=hidden;rotatable=0;points=[[0,0.5],[1,0.5]];portConstraint=eastwest;" parent="QMnXHC6J5KnR4AdairPu-14" vertex="1">
          <mxGeometry y="60" width="160" height="26" as="geometry"/>
        </mxCell>
        <mxCell id="QMnXHC6J5KnR4AdairPu-18" value="Beneficiaire" style="swimlane;fontStyle=1;align=center;verticalAlign=top;childLayout=stackLayout;horizontal=1;startSize=26;horizontalStack=0;resizeParent=1;resizeParentMax=0;resizeLast=0;collapsible=1;marginBottom=0;fillColor=#ffe6cc;strokeColor=#d79b00;" parent="1" vertex="1">
          <mxGeometry x="1440" y="400" width="160" height="86" as="geometry"/>
        </mxCell>
        <mxCell id="QMnXHC6J5KnR4AdairPu-19" value="+ dateNaissance: Date" style="text;strokeColor=none;fillColor=none;align=left;verticalAlign=top;spacingLeft=4;spacingRight=4;overflow=hidden;rotatable=0;points=[[0,0.5],[1,0.5]];portConstraint=eastwest;" parent="QMnXHC6J5KnR4AdairPu-18" vertex="1">
          <mxGeometry y="26" width="160" height="26" as="geometry"/>
        </mxCell>
        <mxCell id="QMnXHC6J5KnR4AdairPu-20" value="" style="line;strokeWidth=1;fillColor=none;align=left;verticalAlign=middle;spacingTop=-1;spacingLeft=3;spacingRight=3;rotatable=0;labelPosition=right;points=[];portConstraint=eastwest;" parent="QMnXHC6J5KnR4AdairPu-18" vertex="1">
          <mxGeometry y="52" width="160" height="8" as="geometry"/>
        </mxCell>
        <mxCell id="QMnXHC6J5KnR4AdairPu-21" value="+ method(type): type" style="text;strokeColor=none;fillColor=none;align=left;verticalAlign=top;spacingLeft=4;spacingRight=4;overflow=hidden;rotatable=0;points=[[0,0.5],[1,0.5]];portConstraint=eastwest;" parent="QMnXHC6J5KnR4AdairPu-18" vertex="1">
          <mxGeometry y="60" width="160" height="26" as="geometry"/>
        </mxCell>
        <mxCell id="QMnXHC6J5KnR4AdairPu-22" value="Extends" style="endArrow=block;endSize=16;endFill=0;html=1;" parent="1" source="QMnXHC6J5KnR4AdairPu-6" target="EW4ksH6o6DgnUDPNHG07-20" edge="1">
          <mxGeometry width="160" relative="1" as="geometry">
            <mxPoint x="70" y="510" as="sourcePoint"/>
            <mxPoint x="230" y="510" as="targetPoint"/>
          </mxGeometry>
        </mxCell>
        <mxCell id="QMnXHC6J5KnR4AdairPu-23" value="Extends" style="endArrow=block;endSize=16;endFill=0;html=1;" parent="1" source="QMnXHC6J5KnR4AdairPu-18" target="EW4ksH6o6DgnUDPNHG07-20" edge="1">
          <mxGeometry width="160" relative="1" as="geometry">
            <mxPoint x="70" y="510" as="sourcePoint"/>
            <mxPoint x="230" y="510" as="targetPoint"/>
          </mxGeometry>
        </mxCell>
        <mxCell id="QMnXHC6J5KnR4AdairPu-24" value="Extends" style="endArrow=block;endSize=16;endFill=0;html=1;" parent="1" source="QMnXHC6J5KnR4AdairPu-14" target="EW4ksH6o6DgnUDPNHG07-20" edge="1">
          <mxGeometry width="160" relative="1" as="geometry">
            <mxPoint x="80" y="520" as="sourcePoint"/>
            <mxPoint x="240" y="520" as="targetPoint"/>
          </mxGeometry>
        </mxCell>
        <mxCell id="QMnXHC6J5KnR4AdairPu-25" value="Extends" style="endArrow=block;endSize=16;endFill=0;html=1;" parent="1" source="QMnXHC6J5KnR4AdairPu-10" target="EW4ksH6o6DgnUDPNHG07-20" edge="1">
          <mxGeometry width="160" relative="1" as="geometry">
            <mxPoint x="90" y="530" as="sourcePoint"/>
            <mxPoint x="250" y="530" as="targetPoint"/>
          </mxGeometry>
        </mxCell>
      </root>
    </mxGraphModel>
  </diagram>
</mxfile>
